<svg fill="#000000" height="800px" width="800px" version="1.1" id="Capa_1" xmlns="http://www.w3.org/2000/svg" xmlns:xlink="http://www.w3.org/1999/xlink" 
	 viewBox="0 0 64 64" xml:space="preserve">
<g id="Detective">
	<path d="M39.806,32.027c3.607,0,6.998-1.403,9.546-3.952c2.549-2.549,3.953-5.939,3.953-9.548s-1.404-6.999-3.953-9.548
		c-2.548-2.549-5.938-3.952-9.546-3.952c-3.608,0-6.999,1.403-9.548,3.952c-2.549,2.549-3.953,5.939-3.953,9.548
		s1.404,6.999,3.953,9.548C32.807,30.623,36.198,32.027,39.806,32.027z M31.672,10.393c2.171-2.171,5.06-3.366,8.134-3.366
		c3.073,0,5.961,1.195,8.132,3.366c2.171,2.171,3.367,5.061,3.367,8.134c0,3.074-1.196,5.963-3.367,8.134
		c-2.171,2.171-5.059,3.366-8.132,3.366c-3.074,0-5.963-1.195-8.134-3.366s-3.367-5.06-3.367-8.134
		C28.305,15.454,29.501,12.564,31.672,10.393z"/>
	<path d="M52.495,31.642c3.448-3.447,5.347-8.034,5.347-12.915c0-4.881-1.898-9.468-5.347-12.915
		c-7.122-7.121-18.709-7.121-25.829,0c-6.3,6.299-7.107,16.219-2.027,23.423L7.467,46.407c-2.032-0.492-4.208,0.103-5.702,1.596
		c-2.353,2.354-2.353,6.186,0,8.539c1.14,1.141,2.656,1.769,4.27,1.769c1.614,0,3.13-0.629,4.27-1.769
		c1.494-1.492,2.088-3.671,1.597-5.7L29.072,33.67C36.276,38.749,46.196,37.941,52.495,31.642z M28.267,31.646L10.065,49.849
		c-0.274,0.274-0.365,0.683-0.233,1.047c0.531,1.469,0.161,3.129-0.941,4.231C8.128,55.89,7.114,56.31,6.035,56.31
		c-1.079,0-2.093-0.42-2.855-1.183c-1.574-1.574-1.574-4.136,0-5.71c0.768-0.769,1.809-1.181,2.865-1.181
		c0.46,0,0.923,0.078,1.368,0.239c0.362,0.131,0.773,0.041,1.047-0.233l18.203-18.203c0.357-0.356,0.392-0.924,0.081-1.322
		c-5.035-6.455-4.461-15.694,1.336-21.491c3.069-3.069,7.154-4.76,11.5-4.76c4.347,0,8.432,1.69,11.501,4.76
		c3.07,3.07,4.761,7.154,4.761,11.501s-1.69,8.432-4.761,11.501c-5.797,5.796-15.035,6.371-21.491,1.337
		C29.193,31.253,28.626,31.288,28.267,31.646z"/>
	<path d="M45.347,22.041c-0.328,0.443-0.235,1.069,0.209,1.398c0.179,0.133,0.387,0.196,0.594,0.196c0.307,0,0.608-0.14,0.805-0.405
		c1.984-2.68,2.009-5.809,0.07-9.299c-0.268-0.482-0.878-0.658-1.359-0.389c-0.483,0.268-0.657,0.877-0.389,1.359
		C46.821,17.684,46.844,20.019,45.347,22.041z"/>
	<path d="M39.579,52.544c-0.181-0.313-0.52-0.507-0.877-0.5c-1.014,0.011-2.016,0.286-2.897,0.796
		c-1.345,0.775-2.315,2.018-2.732,3.498c-0.419,1.489-0.229,3.039,0.535,4.363c0.766,1.325,2.013,2.265,3.512,2.646
		c0.477,0.121,0.962,0.182,1.445,0.182c1.023,0,2.036-0.271,2.948-0.798c0.882-0.508,1.622-1.237,2.139-2.11
		c0.185-0.311,0.187-0.697,0.006-1.01L39.579,52.544z M40.514,60.998c-0.889,0.514-1.917,0.661-2.901,0.41
		c-0.973-0.247-1.779-0.854-2.272-1.707c-0.492-0.854-0.614-1.855-0.342-2.821c0.274-0.975,0.915-1.795,1.807-2.309
		c0.421-0.243,0.882-0.405,1.357-0.48l3.448,5.973C41.307,60.438,40.935,60.756,40.514,60.998z"/>
	<path d="M63.343,43.231c-2.148-3.723-8.806-3.766-15.154-0.101c-1.922,1.109-3.658,2.487-5.021,3.985
		c-0.293,0.321-0.345,0.796-0.127,1.173l5.772,9.997c0.182,0.314,0.515,0.5,0.866,0.5c0.07,0,0.143-0.008,0.214-0.023
		c1.978-0.432,4.039-1.246,5.961-2.355C62.203,52.741,65.493,46.954,63.343,43.231z M54.854,54.674
		c-1.517,0.875-3.121,1.547-4.683,1.963l-5.025-8.701c1.141-1.145,2.525-2.198,4.042-3.073c5.199-3.001,10.888-3.291,12.422-0.632
		C63.147,46.89,60.052,51.673,54.854,54.674z"/>
</g>
</svg>
